<svg width="16" height="17" viewBox="0 0 16 17" fill="none" xmlns="http://www.w3.org/2000/svg">
<path d="M14.3538 7.73269L11.3538 10.7327C11.2599 10.8265 11.1327 10.8792 11 10.8792C10.8673 10.8792 10.7401 10.8265 10.6462 10.7327C10.5524 10.6389 10.4997 10.5116 10.4997 10.3789C10.4997 10.2463 10.5524 10.119 10.6462 10.0252L12.7931 7.87894H8C6.54182 7.88059 5.14383 8.46059 4.11274 9.49168C3.08165 10.5228 2.50165 11.9208 2.5 13.3789C2.5 13.5115 2.44732 13.6387 2.35355 13.7325C2.25979 13.8263 2.13261 13.8789 2 13.8789C1.86739 13.8789 1.74021 13.8263 1.64645 13.7325C1.55268 13.6387 1.5 13.5115 1.5 13.3789C1.50182 11.6556 2.18722 10.0033 3.40582 8.78476C4.62441 7.56616 6.27665 6.88076 8 6.87894H12.7931L10.6462 4.73269C10.5998 4.68623 10.5629 4.63108 10.5378 4.57039C10.5127 4.50969 10.4997 4.44464 10.4997 4.37894C10.4997 4.31324 10.5127 4.24819 10.5378 4.18749C10.5629 4.1268 10.5998 4.07165 10.6462 4.02519C10.7401 3.93137 10.8673 3.87866 11 3.87866C11.0657 3.87866 11.1308 3.8916 11.1914 3.91674C11.2521 3.94188 11.3073 3.97874 11.3538 4.02519L14.3538 7.02519C14.4002 7.07163 14.4371 7.12677 14.4623 7.18747C14.4874 7.24817 14.5004 7.31323 14.5004 7.37894C14.5004 7.44465 14.4874 7.50971 14.4623 7.57041C14.4371 7.63111 14.4002 7.68625 14.3538 7.73269Z" fill="white"/>
</svg>
