<svg width="16" height="17" viewBox="0 0 16 17" fill="none" xmlns="http://www.w3.org/2000/svg">
<path d="M14.3538 7.6116L11.3538 10.6116C11.2599 10.7054 11.1327 10.7581 11 10.7581C10.8673 10.7581 10.7401 10.7054 10.6462 10.6116C10.5524 10.5178 10.4997 10.3905 10.4997 10.2578C10.4997 10.1252 10.5524 9.99792 10.6462 9.9041L12.7931 7.75785H8C6.54182 7.7595 5.14383 8.33949 4.11274 9.37059C3.08165 10.4017 2.50165 11.7997 2.5 13.2578C2.5 13.3905 2.44732 13.5176 2.35355 13.6114C2.25979 13.7052 2.13261 13.7578 2 13.7578C1.86739 13.7578 1.74021 13.7052 1.64645 13.6114C1.55268 13.5176 1.5 13.3905 1.5 13.2578C1.50182 11.5345 2.18722 9.88225 3.40582 8.66366C4.62441 7.44507 6.27665 6.75967 8 6.75785H12.7931L10.6462 4.6116C10.5998 4.56514 10.5629 4.50999 10.5378 4.44929C10.5127 4.3886 10.4997 4.32354 10.4997 4.25785C10.4997 4.19215 10.5127 4.12709 10.5378 4.0664C10.5629 4.0057 10.5998 3.95055 10.6462 3.9041C10.7401 3.81028 10.8673 3.75757 11 3.75757C11.0657 3.75757 11.1308 3.77051 11.1914 3.79565C11.2521 3.82079 11.3073 3.85764 11.3538 3.9041L14.3538 6.9041C14.4002 6.95053 14.4371 7.00568 14.4623 7.06638C14.4874 7.12708 14.5004 7.19214 14.5004 7.25785C14.5004 7.32355 14.4874 7.38862 14.4623 7.44932C14.4371 7.51002 14.4002 7.56516 14.3538 7.6116Z" fill="white"/>
</svg>
