<svg width="16" height="17" viewBox="0 0 16 17" fill="none" xmlns="http://www.w3.org/2000/svg">
<path d="M13.5306 7.28855L8.5306 12.2885C8.46092 12.3585 8.37813 12.4139 8.28696 12.4518C8.1958 12.4897 8.09806 12.5091 7.99935 12.5091C7.90064 12.5091 7.8029 12.4897 7.71173 12.4518C7.62057 12.4139 7.53778 12.3585 7.4681 12.2885L2.4681 7.28855C2.3272 7.14765 2.24805 6.95655 2.24805 6.7573C2.24805 6.55804 2.3272 6.36694 2.4681 6.22605C2.60899 6.08515 2.80009 6.006 2.99935 6.006C3.19861 6.006 3.3897 6.08515 3.5306 6.22605L7.99997 10.6954L12.4693 6.22542C12.6102 6.08453 12.8013 6.00537 13.0006 6.00537C13.1999 6.00537 13.391 6.08453 13.5318 6.22542C13.6727 6.36632 13.7519 6.55741 13.7519 6.75667C13.7519 6.95593 13.6727 7.14703 13.5318 7.28792L13.5306 7.28855Z" fill="#604581"/>
</svg>
