<svg width="16" height="17" viewBox="0 0 16 17" fill="none" xmlns="http://www.w3.org/2000/svg">
<path d="M13.5306 7.40952L8.5306 12.4095C8.46092 12.4794 8.37813 12.5349 8.28696 12.5728C8.1958 12.6106 8.09806 12.6301 7.99935 12.6301C7.90064 12.6301 7.8029 12.6106 7.71173 12.5728C7.62057 12.5349 7.53778 12.4794 7.4681 12.4095L2.4681 7.40952C2.3272 7.26862 2.24805 7.07753 2.24805 6.87827C2.24805 6.67901 2.3272 6.48791 2.4681 6.34702C2.60899 6.20612 2.80009 6.12697 2.99935 6.12697C3.19861 6.12697 3.3897 6.20612 3.5306 6.34702L7.99997 10.8164L12.4693 6.34639C12.6102 6.2055 12.8013 6.12634 13.0006 6.12634C13.1999 6.12634 13.391 6.2055 13.5318 6.34639C13.6727 6.48729 13.7519 6.67839 13.7519 6.87764C13.7519 7.0769 13.6727 7.268 13.5318 7.40889L13.5306 7.40952Z" fill="#604581"/>
</svg>
