<svg width="81" height="81" viewBox="0 0 81 81" fill="none" xmlns="http://www.w3.org/2000/svg">
<mask id="mask0_69_1963" style="mask-type:luminance" maskUnits="userSpaceOnUse" x="0" y="0" width="81" height="81">
<path d="M65.4658 0.125H15.4658C11.4911 0.136542 7.68252 1.7206 4.87197 4.53115C2.06142 7.34169 0.477363 11.1503 0.46582 15.125L0.46582 65.125C0.477363 69.0997 2.06142 72.9083 4.87197 75.7189C7.68252 78.5294 11.4911 80.1135 15.4658 80.125H65.4658C69.4405 80.1135 73.2491 78.5294 76.0597 75.7189C78.8702 72.9083 80.4543 69.0997 80.4658 65.125V15.125C80.4543 11.1503 78.8702 7.34169 76.0597 4.53115C73.2491 1.7206 69.4405 0.136542 65.4658 0.125ZM75.4658 65.125C75.4658 67.7772 74.4122 70.3207 72.5369 72.1961C70.6615 74.0714 68.118 75.125 65.4658 75.125H15.4658C12.8137 75.125 10.2701 74.0714 8.39475 72.1961C6.51939 70.3207 5.46582 67.7772 5.46582 65.125V15.125C5.46582 12.4728 6.51939 9.9293 8.39475 8.05393C10.2701 6.17857 12.8137 5.125 15.4658 5.125H65.4658C68.118 5.125 70.6615 6.17857 72.5369 8.05393C74.4122 9.9293 75.4658 12.4728 75.4658 15.125V65.125Z" fill="white"/>
</mask>
<g mask="url(#mask0_69_1963)">
<path d="M17.6533 168.875C68.9122 168.875 110.466 127.321 110.466 76.0625C110.466 24.8036 68.9122 -16.75 17.6533 -16.75C-33.6056 -16.75 -75.1592 24.8036 -75.1592 76.0625C-75.1592 127.321 -33.6056 168.875 17.6533 168.875Z" fill="url(#paint0_radial_69_1963)"/>
</g>
<defs>
<radialGradient id="paint0_radial_69_1963" cx="0" cy="0" r="1" gradientUnits="userSpaceOnUse" gradientTransform="translate(17.6533 76.0625) scale(92.8125)">
<stop stop-color="#FFD676"/>
<stop offset="0.25" stop-color="#F2A454"/>
<stop offset="0.38" stop-color="#F05C3C"/>
<stop offset="0.7" stop-color="#C22F86"/>
<stop offset="0.96" stop-color="#6666AD"/>
<stop offset="0.99" stop-color="#5C6CB2"/>
</radialGradient>
</defs>
</svg>
