<svg width="21" height="21" viewBox="0 0 21 21" fill="none" xmlns="http://www.w3.org/2000/svg">
<mask id="mask0_69_1973" style="mask-type:luminance" maskUnits="userSpaceOnUse" x="0" y="0" width="21" height="21">
<path d="M10.4658 0.125C7.81366 0.125 5.27012 1.17857 3.39475 3.05393C1.51939 4.9293 0.46582 7.47284 0.46582 10.125C0.46582 12.7772 1.51939 15.3207 3.39475 17.1961C5.27012 19.0714 7.81366 20.125 10.4658 20.125C13.118 20.125 15.6615 19.0714 17.5369 17.1961C19.4122 15.3207 20.4658 12.7772 20.4658 10.125C20.4658 7.47284 19.4122 4.9293 17.5369 3.05393C15.6615 1.17857 13.118 0.125 10.4658 0.125ZM10.4658 15.125C9.13974 15.125 7.86797 14.5982 6.93029 13.6605C5.99261 12.7229 5.46582 11.4511 5.46582 10.125C5.46582 8.79892 5.99261 7.52715 6.93029 6.58947C7.86797 5.65179 9.13974 5.125 10.4658 5.125C11.7919 5.125 13.0637 5.65179 14.0014 6.58947C14.939 7.52715 15.4658 8.79892 15.4658 10.125C15.4658 11.4511 14.939 12.7229 14.0014 13.6605C13.0637 14.5982 11.7919 15.125 10.4658 15.125Z" fill="white"/>
</mask>
<g mask="url(#mask0_69_1973)">
<path d="M-12.3467 138.875C38.9122 138.875 80.4658 97.3214 80.4658 46.0625C80.4658 -5.19643 38.9122 -46.75 -12.3467 -46.75C-63.6056 -46.75 -105.159 -5.19643 -105.159 46.0625C-105.159 97.3214 -63.6056 138.875 -12.3467 138.875Z" fill="url(#paint0_radial_69_1973)"/>
</g>
<defs>
<radialGradient id="paint0_radial_69_1973" cx="0" cy="0" r="1" gradientUnits="userSpaceOnUse" gradientTransform="translate(-12.3467 46.0625) scale(92.8125)">
<stop stop-color="#FFD676"/>
<stop offset="0.25" stop-color="#F2A454"/>
<stop offset="0.38" stop-color="#F05C3C"/>
<stop offset="0.7" stop-color="#C22F86"/>
<stop offset="0.96" stop-color="#6666AD"/>
<stop offset="0.99" stop-color="#5C6CB2"/>
</radialGradient>
</defs>
</svg>
