<svg width="46" height="46" viewBox="0 0 46 46" fill="none" xmlns="http://www.w3.org/2000/svg">
<mask id="mask0_69_1978" style="mask-type:luminance" maskUnits="userSpaceOnUse" x="0" y="0" width="46" height="46">
<path d="M35.9658 45.625H10.9658C8.31366 45.625 5.77012 44.5714 3.89475 42.6961C2.01939 40.8207 0.96582 38.2772 0.96582 35.625V10.625C0.96582 7.97284 2.01939 5.4293 3.89475 3.55393C5.77012 1.67857 8.31366 0.625 10.9658 0.625H35.9658C38.618 0.625 41.1615 1.67857 43.0369 3.55393C44.9122 5.4293 45.9658 7.97284 45.9658 10.625V35.625C45.9658 38.2772 44.9122 40.8207 43.0369 42.6961C41.1615 44.5714 38.618 45.625 35.9658 45.625ZM10.9658 5.625C9.63974 5.625 8.36797 6.15179 7.43029 7.08947C6.49261 8.02715 5.96582 9.29892 5.96582 10.625V35.625C5.96582 36.9511 6.49261 38.2229 7.43029 39.1605C8.36797 40.0982 9.63974 40.625 10.9658 40.625H35.9658C37.2919 40.625 38.5637 40.0982 39.5014 39.1605C40.439 38.2229 40.9658 36.9511 40.9658 35.625V10.625C40.9658 9.29892 40.439 8.02715 39.5014 7.08947C38.5637 6.15179 37.2919 5.625 35.9658 5.625H10.9658Z" fill="white"/>
</mask>
<g mask="url(#mask0_69_1978)">
<path d="M0.65332 151.875C51.9122 151.875 93.4658 110.321 93.4658 59.0625C93.4658 7.80357 51.9122 -33.75 0.65332 -33.75C-50.6056 -33.75 -92.1592 7.80357 -92.1592 59.0625C-92.1592 110.321 -50.6056 151.875 0.65332 151.875Z" fill="url(#paint0_radial_69_1978)"/>
</g>
<defs>
<radialGradient id="paint0_radial_69_1978" cx="0" cy="0" r="1" gradientUnits="userSpaceOnUse" gradientTransform="translate(0.65332 59.0625) scale(92.8125)">
<stop stop-color="#FFD676"/>
<stop offset="0.25" stop-color="#F2A454"/>
<stop offset="0.38" stop-color="#F05C3C"/>
<stop offset="0.7" stop-color="#C22F86"/>
<stop offset="0.96" stop-color="#6666AD"/>
<stop offset="0.99" stop-color="#5C6CB2"/>
</radialGradient>
</defs>
</svg>
