<svg width="16" height="17" viewBox="0 0 16 17" fill="none" xmlns="http://www.w3.org/2000/svg">
<path d="M14 10.2578V13.7578C14 14.023 13.8946 14.2774 13.7071 14.4649C13.5196 14.6525 13.2652 14.7578 13 14.7578H3C2.73478 14.7578 2.48043 14.6525 2.29289 14.4649C2.10536 14.2774 2 14.023 2 13.7578V10.2578C2 10.1252 2.05268 9.99803 2.14645 9.90426C2.24021 9.81049 2.36739 9.75781 2.5 9.75781C2.63261 9.75781 2.75979 9.81049 2.85355 9.90426C2.94732 9.99803 3 10.1252 3 10.2578V13.7578H13V10.2578C13 10.1252 13.0527 9.99803 13.1464 9.90426C13.2402 9.81049 13.3674 9.75781 13.5 9.75781C13.6326 9.75781 13.7598 9.81049 13.8536 9.90426C13.9473 9.99803 14 10.1252 14 10.2578ZM7.64625 10.6116C7.69269 10.6581 7.74783 10.6949 7.80853 10.7201C7.86923 10.7453 7.93429 10.7582 8 10.7582C8.06571 10.7582 8.13077 10.7453 8.19147 10.7201C8.25217 10.6949 8.30731 10.6581 8.35375 10.6116L10.8538 8.11156C10.9002 8.06511 10.9371 8.00996 10.9622 7.94926C10.9873 7.88856 11.0003 7.82351 11.0003 7.75781C11.0003 7.69212 10.9873 7.62706 10.9622 7.56636C10.9371 7.50567 10.9002 7.45052 10.8538 7.40406C10.8073 7.35761 10.7521 7.32076 10.6914 7.29562C10.6308 7.27047 10.5657 7.25753 10.5 7.25753C10.4343 7.25753 10.3692 7.27047 10.3086 7.29562C10.2479 7.32076 10.1927 7.35761 10.1462 7.40406L8.5 9.05094V3.25781C8.5 3.1252 8.44732 2.99803 8.35355 2.90426C8.25979 2.81049 8.13261 2.75781 8 2.75781C7.86739 2.75781 7.74021 2.81049 7.64645 2.90426C7.55268 2.99803 7.5 3.1252 7.5 3.25781V9.05094L5.85375 7.40406C5.75993 7.31024 5.63268 7.25753 5.5 7.25753C5.36732 7.25753 5.24007 7.31024 5.14625 7.40406C5.05243 7.49788 4.99972 7.62513 4.99972 7.75781C4.99972 7.89049 5.05243 8.01774 5.14625 8.11156L7.64625 10.6116Z" fill="#9747FF"/>
</svg>
