<svg width="16" height="17" viewBox="0 0 16 17" fill="none" xmlns="http://www.w3.org/2000/svg">
<path d="M14 10.3789V13.8789C14 14.1441 13.8946 14.3985 13.7071 14.586C13.5196 14.7735 13.2652 14.8789 13 14.8789H3C2.73478 14.8789 2.48043 14.7735 2.29289 14.586C2.10536 14.3985 2 14.1441 2 13.8789V10.3789C2 10.2463 2.05268 10.1191 2.14645 10.0254C2.24021 9.93158 2.36739 9.87891 2.5 9.87891C2.63261 9.87891 2.75979 9.93158 2.85355 10.0254C2.94732 10.1191 3 10.2463 3 10.3789V13.8789H13V10.3789C13 10.2463 13.0527 10.1191 13.1464 10.0254C13.2402 9.93158 13.3674 9.87891 13.5 9.87891C13.6326 9.87891 13.7598 9.93158 13.8536 10.0254C13.9473 10.1191 14 10.2463 14 10.3789ZM7.64625 10.7327C7.69269 10.7791 7.74783 10.816 7.80853 10.8412C7.86923 10.8663 7.93429 10.8793 8 10.8793C8.06571 10.8793 8.13077 10.8663 8.19147 10.8412C8.25217 10.816 8.30731 10.7791 8.35375 10.7327L10.8538 8.23266C10.9002 8.1862 10.9371 8.13105 10.9622 8.07035C10.9873 8.00966 11.0003 7.9446 11.0003 7.87891C11.0003 7.81321 10.9873 7.74815 10.9622 7.68746C10.9371 7.62676 10.9002 7.57161 10.8538 7.52516C10.8073 7.4787 10.7521 7.44185 10.6914 7.41671C10.6308 7.39157 10.5657 7.37863 10.5 7.37863C10.4343 7.37863 10.3692 7.39157 10.3086 7.41671C10.2479 7.44185 10.1927 7.4787 10.1462 7.52516L8.5 9.17203V3.37891C8.5 3.2463 8.44732 3.11912 8.35355 3.02535C8.25979 2.93158 8.13261 2.87891 8 2.87891C7.86739 2.87891 7.74021 2.93158 7.64645 3.02535C7.55268 3.11912 7.5 3.2463 7.5 3.37891V9.17203L5.85375 7.52516C5.75993 7.43134 5.63268 7.37863 5.5 7.37863C5.36732 7.37863 5.24007 7.43134 5.14625 7.52516C5.05243 7.61898 4.99972 7.74622 4.99972 7.87891C4.99972 8.01159 5.05243 8.13884 5.14625 8.23266L7.64625 10.7327Z" fill="#9747FF"/>
</svg>
