<svg width="219" height="33" viewBox="0 0 219 33" fill="none" xmlns="http://www.w3.org/2000/svg">
<path d="M47.8122 27.6351C46.389 27.6351 45.1069 27.4469 43.9699 27.0744C42.8329 26.702 41.8449 26.1491 41.0137 25.4199L41.641 24.0907C42.5427 24.8043 43.468 25.3297 44.4168 25.6669C45.3617 26.0041 46.4948 26.1766 47.8161 26.1766C49.4667 26.1766 50.7017 25.8551 51.529 25.212C52.3524 24.569 52.768 23.7261 52.768 22.687C52.768 21.8205 52.4661 21.1422 51.8701 20.656C51.2702 20.1699 50.2861 19.7895 48.9139 19.5112L46.2831 18.9622C44.6521 18.6329 43.4288 18.0761 42.6212 17.2959C41.8135 16.5157 41.4097 15.4727 41.4097 14.171C41.4097 13.1124 41.6841 12.1831 42.2291 11.3833C42.778 10.5834 43.5347 9.96395 44.507 9.52089C45.4794 9.07784 46.6007 8.85827 47.8671 8.85827C50.4038 8.85827 52.4269 9.62283 53.9363 11.152L53.3129 12.4537C52.5131 11.7087 51.678 11.1637 50.8115 10.8265C49.9411 10.4893 48.9609 10.3168 47.8671 10.3168C46.4086 10.3168 45.2402 10.6658 44.362 11.3598C43.4837 12.0537 43.0446 12.983 43.0446 14.1475C43.0446 15.0689 43.323 15.7942 43.8797 16.3235C44.4364 16.8528 45.3304 17.241 46.5615 17.4841L49.2197 18.033C50.9723 18.3976 52.2779 18.9426 53.1287 19.6602C53.9795 20.3816 54.4068 21.3657 54.4068 22.6165C54.4068 23.6045 54.1402 24.4789 53.6109 25.2356C53.0816 25.9923 52.321 26.5804 51.333 27.0078C50.341 27.4352 49.1687 27.6469 47.8161 27.6469L47.8122 27.6351Z" fill="black"/>
<path d="M64.6395 27.4273V10.4933H57.79V9.06216H73.1083V10.4933H66.2549V27.4273H64.6395Z" fill="black"/>
<path d="M85.2198 27.6351C82.8752 27.6351 81.0952 27.0078 79.8798 25.7453C78.6644 24.4867 78.0566 22.6596 78.0566 20.26V9.05824H79.6445V20.1307C79.6445 24.1613 81.5029 26.1766 85.2198 26.1766C88.9366 26.1766 90.795 24.1613 90.795 20.1307V9.05824H92.3829V20.26C92.3829 22.6557 91.7752 24.4867 90.5598 25.7453C89.3444 27.0039 87.5644 27.6351 85.2198 27.6351Z" fill="black"/>
<path d="M99.6514 27.4273V9.05824H105.564C108.481 9.05824 110.735 9.83848 112.323 11.4029C113.911 12.9673 114.707 15.2414 114.707 18.2291C114.707 21.2167 113.911 23.4947 112.323 25.067C110.735 26.6392 108.481 27.4234 105.564 27.4234H99.6514V27.4273ZM101.239 26.0197H105.434C110.473 26.0197 112.99 23.4241 112.99 18.2291C112.99 13.034 110.473 10.4658 105.434 10.4658H101.239V26.0197Z" fill="black"/>
<path d="M124.611 27.4273V18.6211L117.604 9.05824H119.479L125.446 17.2136L131.437 9.05824H133.232L126.226 18.6447V27.4234H124.611V27.4273Z" fill="black"/>
<path d="M137.714 27.4273V9.05824H140.501L147.014 21.0677L153.499 9.05824H156.235V27.4234H153.212V15.0493L147.951 24.6357H145.998L140.737 15.1002V27.4234H137.714V27.4273Z" fill="#9747FF"/>
<path d="M160.897 27.4273L169.209 9.06216H171.946L180.258 27.4273H176.87L175.047 23.1811H166.085L164.289 27.4273H160.901H160.897ZM170.535 12.6811L167.225 20.5227H173.895L170.586 12.6811H170.535Z" fill="#9747FF"/>
<path d="M184.864 27.4273V9.05824H192.835C194.85 9.05824 196.403 9.5601 197.497 10.5678C198.591 11.5754 199.14 12.983 199.14 14.7866C199.14 16.5901 198.591 18.0056 197.497 19.0211C196.403 20.0366 194.846 20.5463 192.835 20.5463H188.197V27.4234H184.864V27.4273ZM188.197 17.9193H192.314C194.709 17.9193 195.909 16.8764 195.909 14.7944C195.909 12.7124 194.709 11.693 192.314 11.693H188.197V17.9193Z" fill="#9747FF"/>
<path d="M210.788 27.6861C209.345 27.6861 208.008 27.4979 206.777 27.1254C205.542 26.7529 204.503 26.2432 203.652 25.6002L204.668 22.9693C205.519 23.5771 206.452 24.0476 207.467 24.3769C208.483 24.7063 209.592 24.8709 210.788 24.8709C212.16 24.8709 213.16 24.6396 213.783 24.1809C214.411 23.7221 214.72 23.1262 214.72 22.3969C214.72 21.7892 214.501 21.3108 214.058 20.9658C213.615 20.6208 212.854 20.3306 211.78 20.1071L208.914 19.5072C205.648 18.8133 204.017 17.1351 204.017 14.4807C204.017 13.3359 204.319 12.336 204.93 11.4852C205.538 10.6344 206.381 9.97571 207.459 9.50521C208.538 9.03471 209.777 8.80338 211.184 8.80338C212.435 8.80338 213.607 8.99158 214.701 9.36406C215.795 9.73654 216.708 10.2619 217.438 10.9402L216.422 13.4417C214.979 12.2263 213.227 11.6185 211.161 11.6185C209.961 11.6185 209.024 11.8695 208.345 12.3753C207.667 12.881 207.33 13.5397 207.33 14.3553C207.33 14.9826 207.538 15.4806 207.957 15.853C208.373 16.2255 209.086 16.5157 210.094 16.7274L212.933 17.3273C214.654 17.6919 215.932 18.2643 216.775 19.0485C217.618 19.8288 218.037 20.8717 218.037 22.1734C218.037 23.2673 217.743 24.2318 217.151 25.0631C216.559 25.8982 215.724 26.5451 214.638 27.0039C213.552 27.4626 212.27 27.6939 210.796 27.6939L210.788 27.6861Z" fill="#9747FF"/>
<path d="M5.81445 19.4406C6.61428 19.3935 7.43371 19.5033 8.23745 19.7895C11.0682 20.8011 12.7031 23.6672 12.2562 26.5334C8.95102 25.3297 6.63388 22.6086 5.81445 19.4406Z" fill="#5C348A"/>
<path d="M5.62571 7.19977C5.30029 7.19977 4.97095 7.15664 4.64945 7.06254C3.72417 6.80376 2.95571 6.19995 2.48522 5.3609C2.01474 4.52184 1.89712 3.5534 2.15588 2.62808C2.6891 0.718636 4.68082 -0.40272 6.5902 0.134433C7.51549 0.393208 8.28395 0.997015 8.75444 1.83607C9.22492 2.67513 9.34254 3.64357 9.08378 4.56889C8.82501 5.4942 8.22122 6.26269 7.38219 6.73319C6.83721 7.03901 6.23342 7.19584 5.62179 7.19584L5.62571 7.19977ZM5.61395 0.777449C5.13562 0.777449 4.66514 0.898995 4.23386 1.14209C3.57518 1.51064 3.10469 2.11445 2.90082 2.8398C2.69694 3.56516 2.79104 4.3258 3.15958 4.9845C3.52813 5.63928 4.13192 6.1137 4.85725 6.31758C5.58258 6.52146 6.3432 6.42736 7.00188 6.0588C7.66056 5.69025 8.13104 5.08644 8.33492 4.36109C8.5388 3.63573 8.44862 2.87509 8.07615 2.21639C7.70369 1.55769 7.10382 1.08719 6.37849 0.883311C6.12756 0.812736 5.86879 0.777449 5.61395 0.777449ZM25.8683 32.1323C25.6527 32.1323 25.4292 32.1009 25.2097 32.0421C24.5823 31.8657 24.0609 31.4579 23.7433 30.8894C23.4257 30.3209 23.3473 29.6661 23.5198 29.0388C23.6963 28.4114 24.104 27.89 24.6725 27.5724C25.241 27.2548 25.8958 27.1764 26.5231 27.3489C27.1504 27.5253 27.6719 27.9331 27.9894 28.5016C28.307 29.0701 28.3854 29.7249 28.2129 30.3523C27.911 31.4266 26.9308 32.1323 25.8644 32.1323H25.8683ZM25.8683 28.035C25.586 28.035 25.3116 28.1056 25.0567 28.2468C24.6725 28.4624 24.3941 28.8192 24.2726 29.2466C24.1511 29.674 24.2059 30.1209 24.4216 30.5052C24.6372 30.8933 24.994 31.1678 25.4214 31.2893C26.3035 31.5363 27.221 31.0188 27.468 30.1405C27.5895 29.7132 27.5346 29.2662 27.319 28.878C27.1034 28.4899 26.7466 28.2154 26.3192 28.0939C26.1702 28.0547 26.0212 28.0311 25.8683 28.0311V28.035Z" fill="#9747FF"/>
<path d="M4.09674 31.403C0.889597 30.2582 -0.784545 26.7333 0.360302 23.5261C1.21894 21.1187 3.41845 19.5778 5.81793 19.4406C6.63736 22.6125 8.9545 25.3336 12.2597 26.5334C12.2008 26.9137 12.1107 27.2901 11.9774 27.6665C10.8325 30.8737 7.3078 32.5479 4.10066 31.403H4.09674ZM29.7382 12.5399C29.3814 13.8103 30.1224 15.1277 31.3927 15.4845C32.663 15.8413 33.9804 15.1002 34.3372 13.8299C34.694 12.5595 33.9529 11.2421 32.6826 10.8853C31.4123 10.5285 30.095 11.2696 29.7382 12.5399Z" fill="#9747FF"/>
<path d="M12.2553 26.5334C12.2749 26.5412 12.2945 26.5491 12.3142 26.5569C17.662 28.4624 23.5431 25.6747 25.4524 20.3267C27.3579 14.9787 24.5703 9.09745 19.2224 7.188C13.8746 5.28248 7.99353 8.07019 6.08414 13.4182C5.36665 15.4296 5.31568 17.5155 5.80969 19.4367C6.60952 19.3896 7.42895 19.4994 8.23269 19.7856C11.0674 20.7972 12.6984 23.6633 12.2553 26.5295V26.5334ZM18.0109 20.8246C18.1835 20.2091 18.8225 19.8484 19.4381 20.0209C20.0536 20.1934 20.4143 20.8325 20.2418 21.4481C20.0693 22.0636 19.4302 22.4243 18.8147 22.2518C18.1991 22.0793 17.8384 21.4402 18.0109 20.8246ZM11.1811 12.6928C11.5927 11.2186 13.1218 10.36 14.596 10.7716C16.0702 11.1833 16.9288 12.7125 16.5172 14.1867C16.1055 15.6609 14.5764 16.5196 13.1022 16.1079C11.628 15.6962 10.7694 14.1671 11.1811 12.6928ZM19.8576 2.67905C20.0301 2.06348 20.6692 1.70277 21.2847 1.87528C21.9003 2.0478 22.261 2.68689 22.0885 3.30246C21.916 3.91803 21.2769 4.27875 20.6613 4.10623C20.0458 3.93372 19.6851 3.29462 19.8576 2.67905Z" fill="#9747FF"/>
</svg>
