<svg width="14" height="14" viewBox="0 0 14 14" fill="none" xmlns="http://www.w3.org/2000/svg">
<path d="M0.375 9.25031C0.515795 9.40986 0.688923 9.53762 0.882887 9.62512C1.07685 9.71262 1.28721 9.75785 1.5 9.75781L5 9.75781L5 10.7578C5 11.4209 5.26339 12.0567 5.73223 12.5256C6.20107 12.9944 6.83696 13.2578 7.5 13.2578C7.59289 13.2579 7.68396 13.2321 7.763 13.1833C7.84205 13.1345 7.90593 13.0646 7.9475 12.9816L10.3088 8.25781L13 8.25781C13.2652 8.25781 13.5196 8.15246 13.7071 7.96492C13.8946 7.77738 14 7.52303 14 7.25781L14 1.75781C14 1.4926 13.8946 1.23824 13.7071 1.05071C13.5196 0.863169 13.2652 0.757812 13 0.757812L2.25 0.757811C1.88456 0.757686 1.53164 0.890972 1.25752 1.13264C0.983401 1.37431 0.806931 1.70774 0.761251 2.07031L0.01125 8.07031C-0.0153329 8.28155 0.00335637 8.49602 0.0660738 8.69948C0.128791 8.90293 0.2341 9.0907 0.375 9.25031ZM13 7.25781L10.5 7.25781L10.5 1.75781L13 1.75781L13 7.25781ZM1.00375 8.19531L1.75375 2.19531C1.76898 2.07445 1.8278 1.96331 1.91918 1.88275C2.01055 1.8022 2.12819 1.75777 2.25 1.75781L9.5 1.75781L9.5 7.63969L7.20563 12.2291C6.86557 12.161 6.5596 11.9772 6.33979 11.709C6.11998 11.4407 5.9999 11.1046 6 10.7578L6 9.25781C6 9.1252 5.94732 8.99803 5.85355 8.90426C5.75979 8.81049 5.63261 8.75781 5.5 8.75781L1.5 8.75781C1.42905 8.75784 1.3589 8.74276 1.29423 8.71358C1.22955 8.68441 1.17183 8.6418 1.12489 8.58859C1.07795 8.53539 1.04287 8.4728 1.02198 8.40499C1.0011 8.33718 0.994881 8.26571 1.00375 8.19531Z" fill="#9747FF"/>
</svg>
