<svg width="14" height="14" viewBox="0 0 14 14" fill="none" xmlns="http://www.w3.org/2000/svg">
<path d="M13.625 4.76531C13.4842 4.60577 13.3111 4.478 13.1171 4.3905C12.9231 4.303 12.7128 4.25777 12.5 4.25781H9V3.25781C9 2.59477 8.73661 1.95889 8.26777 1.49005C7.79893 1.0212 7.16304 0.757813 6.5 0.757813C6.40711 0.757746 6.31604 0.783557 6.237 0.832351C6.15795 0.881145 6.09407 0.950993 6.0525 1.03406L3.69125 5.75781H1C0.734784 5.75781 0.48043 5.86317 0.292893 6.05071C0.105357 6.23824 0 6.4926 0 6.75781V12.2578C0 12.523 0.105357 12.7774 0.292893 12.9649C0.48043 13.1525 0.734784 13.2578 1 13.2578H11.75C12.1154 13.2579 12.4684 13.1247 12.7425 12.883C13.0166 12.6413 13.1931 12.3079 13.2388 11.9453L13.9888 5.94531C14.0153 5.73408 13.9966 5.5196 13.9339 5.31615C13.8712 5.11269 13.7659 4.92492 13.625 4.76531ZM1 6.75781H3.5V12.2578H1V6.75781ZM12.9963 5.82031L12.2463 11.8203C12.231 11.9412 12.1722 12.0523 12.0808 12.1329C11.9895 12.2134 11.8718 12.2579 11.75 12.2578H4.5V6.37594L6.79437 1.78656C7.13443 1.85462 7.4404 2.03841 7.66021 2.30665C7.88002 2.57489 8.0001 2.91101 8 3.25781V4.75781C8 4.89042 8.05268 5.0176 8.14645 5.11137C8.24021 5.20513 8.36739 5.25781 8.5 5.25781H12.5C12.571 5.25779 12.6411 5.27286 12.7058 5.30204C12.7704 5.33122 12.8282 5.37382 12.8751 5.42703C12.9221 5.48024 12.9571 5.54282 12.978 5.61063C12.9989 5.67844 13.0051 5.74992 12.9963 5.82031Z" fill="#9747FF"/>
</svg>
