<svg width="21" height="20" viewBox="0 0 21 20" fill="none" xmlns="http://www.w3.org/2000/svg">
<path d="M10.4658 0C8.48801 0 6.55462 0.586491 4.91012 1.6853C3.26563 2.78412 1.98391 4.3459 1.22703 6.17316C0.470153 8.00043 0.27212 10.0111 0.657972 11.9509C1.04382 13.8907 1.99623 15.6725 3.39476 17.0711C4.79328 18.4696 6.57511 19.422 8.51492 19.8079C10.4547 20.1937 12.4654 19.9957 14.2927 19.2388C16.1199 18.4819 17.6817 17.2002 18.7805 15.5557C19.8793 13.9112 20.4658 11.9778 20.4658 10C20.4658 7.34784 19.4123 4.8043 17.5369 2.92893C15.6615 1.05357 13.118 0 10.4658 0ZM10.4658 15C9.47692 15 8.51022 14.7068 7.68798 14.1573C6.86573 13.6079 6.22487 12.827 5.84643 11.9134C5.46799 10.9998 5.36897 9.99445 5.5619 9.02455C5.75482 8.05464 6.23103 7.16373 6.93029 6.46447C7.62956 5.7652 8.52047 5.289 9.49037 5.09607C10.4603 4.90315 11.4656 5.00216 12.3792 5.3806C13.2929 5.75904 14.0738 6.3999 14.6232 7.22215C15.1726 8.0444 15.4658 9.01109 15.4658 10C15.4658 11.3261 14.939 12.5979 14.0014 13.5355C13.0637 14.4732 11.7919 15 10.4658 15Z" fill="#FBF9F9"/>
</svg>
