<svg width="16" height="10" viewBox="0 0 16 10" fill="none" xmlns="http://www.w3.org/2000/svg">
<path d="M15.7867 9.15066C15.7192 9.21828 15.639 9.27192 15.5507 9.30851C15.4624 9.34511 15.3678 9.36395 15.2722 9.36395C15.1766 9.36395 15.082 9.34511 14.9937 9.30851C14.9054 9.27192 14.8252 9.21828 14.7577 9.15066L7.99992 2.39198L1.24215 9.15066C1.10569 9.28712 0.920613 9.36378 0.727633 9.36378C0.534652 9.36378 0.349576 9.28712 0.213119 9.15066C0.076661 9.0142 3.8041e-09 8.82913 0 8.63615C-3.8041e-09 8.44317 0.076661 8.25809 0.213119 8.12163L7.4854 0.849349C7.55294 0.781734 7.63315 0.728094 7.72143 0.691497C7.80972 0.6549 7.90435 0.636063 7.99992 0.636063C8.09549 0.636063 8.19012 0.6549 8.2784 0.691497C8.36669 0.728094 8.44689 0.781734 8.51443 0.849349L15.7867 8.12163C15.8543 8.18917 15.908 8.26938 15.9446 8.35766C15.9812 8.44595 16 8.54058 16 8.63615C16 8.73171 15.9812 8.82635 15.9446 8.91463C15.908 9.00292 15.8543 9.08312 15.7867 9.15066Z" fill="#696291"/>
</svg>
