<svg width="16" height="10" viewBox="0 0 16 10" fill="none" xmlns="http://www.w3.org/2000/svg">
<path d="M0.213286 0.849415C0.280826 0.7818 0.361033 0.72816 0.449317 0.691562C0.537601 0.654965 0.632231 0.636129 0.727801 0.636129C0.82337 0.636129 0.918003 0.654965 1.00629 0.691562C1.09457 0.72816 1.17477 0.7818 1.24231 0.849415L8.00008 7.60809L14.7579 0.849416C14.8943 0.712958 15.0794 0.636297 15.2724 0.636297C15.4653 0.636297 15.6504 0.712958 15.7869 0.849416C15.9233 0.985874 16 1.17095 16 1.36393C16 1.55691 15.9233 1.74199 15.7869 1.87844L8.5146 9.15073C8.44706 9.21834 8.36685 9.27198 8.27857 9.30858C8.19028 9.34518 8.09565 9.36401 8.00008 9.36401C7.90451 9.36401 7.80988 9.34518 7.7216 9.30858C7.63331 9.27198 7.55311 9.21834 7.48557 9.15073L0.213286 1.87844C0.145671 1.8109 0.092031 1.7307 0.0554338 1.64241C0.0188366 1.55413 6.31423e-07 1.4595 6.39778e-07 1.36393C6.48132e-07 1.26836 0.0188366 1.17373 0.0554338 1.08544C0.0920311 0.99716 0.145671 0.916955 0.213286 0.849415Z" fill="#696291"/>
</svg>
