<svg width="14" height="14" viewBox="0 0 14 14" fill="none" xmlns="http://www.w3.org/2000/svg">
<path d="M0.375 9.3714C0.515795 9.53095 0.688923 9.65872 0.882887 9.74622C1.07685 9.83372 1.28721 9.87895 1.5 9.8789L5 9.87891L5 10.8789C5 11.5419 5.26339 12.1778 5.73223 12.6467C6.20107 13.1155 6.83696 13.3789 7.5 13.3789C7.59289 13.379 7.68396 13.3532 7.763 13.3044C7.84205 13.2556 7.90593 13.1857 7.9475 13.1027L10.3088 8.37891L13 8.37891C13.2652 8.37891 13.5196 8.27355 13.7071 8.08601C13.8946 7.89848 14 7.64412 14 7.37891L14 1.87891C14 1.61369 13.8946 1.35934 13.7071 1.1718C13.5196 0.984263 13.2652 0.878906 13 0.878906L2.25 0.878905C1.88456 0.87878 1.53164 1.01207 1.25752 1.25373C0.983401 1.4954 0.806931 1.82883 0.761251 2.19141L0.01125 8.19141C-0.0153329 8.40264 0.00335637 8.61712 0.0660738 8.82057C0.128791 9.02402 0.2341 9.2118 0.375 9.3714ZM13 7.37891L10.5 7.37891L10.5 1.87891L13 1.87891L13 7.37891ZM1.00375 8.31641L1.75375 2.31641C1.76898 2.19555 1.8278 2.0844 1.91918 2.00385C2.01055 1.92329 2.12819 1.87886 2.25 1.87891L9.5 1.87891L9.5 7.76078L7.20563 12.3502C6.86557 12.2821 6.5596 12.0983 6.33979 11.8301C6.11998 11.5618 5.9999 11.2257 6 10.8789L6 9.37891C6 9.2463 5.94732 9.11912 5.85355 9.02535C5.75979 8.93158 5.63261 8.87891 5.5 8.87891L1.5 8.87891C1.42905 8.87893 1.3589 8.86385 1.29423 8.83468C1.22955 8.8055 1.17183 8.76289 1.12489 8.70969C1.07795 8.65648 1.04287 8.5939 1.02198 8.52609C1.0011 8.45828 0.994881 8.3868 1.00375 8.31641Z" fill="#9747FF"/>
</svg>
