<svg width="18" height="16" viewBox="0 0 18 16" fill="none" xmlns="http://www.w3.org/2000/svg">
<path d="M17.4 14.2999H16.2V7.36556C16.2 7.19946 16.1656 7.03517 16.0988 6.88308C16.0321 6.73099 15.9345 6.59441 15.8123 6.48198L9.81225 0.820502C9.80932 0.817943 9.80656 0.815186 9.804 0.812251C9.58309 0.611334 9.29522 0.5 8.99663 0.5C8.69803 0.5 8.41016 0.611334 8.18925 0.812251L8.181 0.820502L2.18775 6.48198C2.0655 6.59441 1.96791 6.73099 1.90117 6.88308C1.83442 7.03517 1.79997 7.19946 1.8 7.36556V14.2999H0.6C0.44087 14.2999 0.288258 14.3631 0.175736 14.4756C0.0632141 14.5882 0 14.7408 0 14.8999C0 15.0591 0.0632141 15.2117 0.175736 15.3242C0.288258 15.4368 0.44087 15.5 0.6 15.5H17.4C17.5591 15.5 17.7117 15.4368 17.8243 15.3242C17.9368 15.2117 18 15.0591 18 14.8999C18 14.7408 17.9368 14.5882 17.8243 14.4756C17.7117 14.3631 17.5591 14.2999 17.4 14.2999ZM3 7.36556L3.00825 7.35806L9 1.69883L14.9925 7.35656L15.0008 7.36406V14.2999H11.4V10.6996C11.4 10.3813 11.2736 10.0761 11.0485 9.85099C10.8235 9.62593 10.5183 9.49949 10.2 9.49949H7.8C7.48174 9.49949 7.17652 9.62593 6.95147 9.85099C6.72643 10.0761 6.6 10.3813 6.6 10.6996V14.2999H3V7.36556ZM10.2 14.2999H7.8V10.6996H10.2V14.2999Z" fill="#9747FF"/>
</svg>
