<svg width="41" height="40" viewBox="0 0 41 40" fill="none" xmlns="http://www.w3.org/2000/svg">
<path d="M20.4661 0.166504C9.46613 0.166504 0.632812 8.99982 0.632812 19.9998C0.632812 28.1665 5.46614 34.9998 12.4661 38.1665C12.4661 36.8332 12.4661 35.1665 12.7995 33.6665C13.1328 31.9998 15.2995 22.8332 15.2995 22.8332C15.2995 22.8332 14.6328 21.4999 14.6328 19.6665C14.6328 16.6665 16.2995 14.4998 18.4662 14.4998C20.2995 14.4998 21.1328 15.8332 21.1328 17.4999C21.1328 19.3332 19.9661 21.9999 19.4661 24.4999C18.9661 26.6665 20.6328 28.3332 22.6328 28.3332C26.4661 28.3332 28.9661 23.4999 28.9661 17.8332C28.9661 13.4999 25.9661 10.3332 20.7995 10.3332C14.7994 10.3332 11.1328 14.8332 11.1328 19.8332C11.1328 21.4999 11.6328 22.8332 12.4661 23.6666C12.7995 24.1666 12.9661 24.3332 12.7995 24.8332C12.6328 25.1666 12.4661 25.9999 12.4661 26.4999C12.2995 26.9999 11.9661 27.1666 11.4661 26.9999C8.63279 25.8332 7.46614 22.8332 7.46614 19.4999C7.46614 13.8332 12.1328 7.16654 21.6328 7.16654C29.1328 7.16654 34.1328 12.6666 34.1328 18.4999C34.1328 26.3332 29.7995 31.9999 23.4662 31.9999C21.2995 31.9999 19.2995 30.8332 18.6328 29.4999C18.6328 29.4999 17.4661 33.9999 17.2995 34.9999C16.7995 36.4999 16.1328 37.9999 15.2995 39.1666C17.1328 39.6666 18.9662 39.9999 20.9661 39.9999C31.9662 39.9999 40.7995 31.1666 40.7995 20.1666C40.2995 8.99985 31.4662 0.166504 20.4661 0.166504Z" fill="#FBF9F9"/>
</svg>
