<svg width="25" height="18" viewBox="0 0 25 18" fill="none" xmlns="http://www.w3.org/2000/svg">
<path d="M24.877 9C24.877 9.26522 24.7721 9.51957 24.5854 9.70711C24.3987 9.89464 24.1454 10 23.8814 10H1.97803C1.71398 10 1.46074 9.89464 1.27403 9.70711C1.08732 9.51957 0.982422 9.26522 0.982422 9C0.982422 8.73478 1.08732 8.48043 1.27403 8.29289C1.46074 8.10536 1.71398 8 1.97803 8H23.8814C24.1454 8 24.3987 8.10536 24.5854 8.29289C24.7721 8.48043 24.877 8.73478 24.877 9ZM1.97803 2H23.8814C24.1454 2 24.3987 1.89464 24.5854 1.70711C24.7721 1.51957 24.877 1.26522 24.877 1C24.877 0.734784 24.7721 0.48043 24.5854 0.292893C24.3987 0.105357 24.1454 0 23.8814 0H1.97803C1.71398 0 1.46074 0.105357 1.27403 0.292893C1.08732 0.48043 0.982422 0.734784 0.982422 1C0.982422 1.26522 1.08732 1.51957 1.27403 1.70711C1.46074 1.89464 1.71398 2 1.97803 2ZM23.8814 16H1.97803C1.71398 16 1.46074 16.1054 1.27403 16.2929C1.08732 16.4804 0.982422 16.7348 0.982422 17C0.982422 17.2652 1.08732 17.5196 1.27403 17.7071C1.46074 17.8946 1.71398 18 1.97803 18H23.8814C24.1454 18 24.3987 17.8946 24.5854 17.7071C24.7721 17.5196 24.877 17.2652 24.877 17C24.877 16.7348 24.7721 16.4804 24.5854 16.2929C24.3987 16.1054 24.1454 16 23.8814 16Z" fill="#131312"/>
</svg>
