<svg width="14" height="14" viewBox="0 0 14 14" fill="none" xmlns="http://www.w3.org/2000/svg">
<path d="M13.625 4.88641C13.4842 4.72686 13.3111 4.59909 13.1171 4.51159C12.9231 4.42409 12.7128 4.37886 12.5 4.37891H9V3.37891C9 2.71587 8.73661 2.07998 8.26777 1.61114C7.79893 1.1423 7.16304 0.878906 6.5 0.878906C6.40711 0.87884 6.31604 0.904651 6.237 0.953445C6.15795 1.00224 6.09407 1.07209 6.0525 1.15516L3.69125 5.87891H1C0.734784 5.87891 0.48043 5.98426 0.292893 6.1718C0.105357 6.35934 0 6.61369 0 6.87891V12.3789C0 12.6441 0.105357 12.8985 0.292893 13.086C0.48043 13.2735 0.734784 13.3789 1 13.3789H11.75C12.1154 13.379 12.4684 13.2457 12.7425 13.0041C13.0166 12.7624 13.1931 12.429 13.2388 12.0664L13.9888 6.06641C14.0153 5.85517 13.9966 5.6407 13.9339 5.43724C13.8712 5.23379 13.7659 5.04601 13.625 4.88641ZM1 6.87891H3.5V12.3789H1V6.87891ZM12.9963 5.94141L12.2463 11.9414C12.231 12.0623 12.1722 12.1734 12.0808 12.254C11.9895 12.3345 11.8718 12.3789 11.75 12.3789H4.5V6.49703L6.79437 1.90766C7.13443 1.97572 7.4404 2.1595 7.66021 2.42775C7.88002 2.69599 8.0001 3.03211 8 3.37891V4.87891C8 5.01151 8.05268 5.13869 8.14645 5.23246C8.24021 5.32623 8.36739 5.37891 8.5 5.37891H12.5C12.571 5.37888 12.6411 5.39396 12.7058 5.42313C12.7704 5.45231 12.8282 5.49492 12.8751 5.54812C12.9221 5.60133 12.9571 5.66392 12.978 5.73172C12.9989 5.79953 13.0051 5.87101 12.9963 5.94141Z" fill="#9747FF"/>
</svg>
